<?xml version="1.0" standalone="no"?>
<!DOCTYPE svg PUBLIC "-//W3C//DTD SVG 20010904//EN"
 "http://www.w3.org/TR/2001/REC-SVG-20010904/DTD/svg10.dtd">
<svg version="1.0" xmlns="http://www.w3.org/2000/svg"
 width="1024.000000pt" height="1024.000000pt" viewBox="0 0 1024.000000 1024.000000"
 preserveAspectRatio="xMidYMid meet">
<metadata>
Created by potrace 1.16, written by Peter Selinger 2001-2019
</metadata>
<g transform="translate(0.000000,1024.000000) scale(0.100000,-0.100000)"
fill="#000000" stroke="none">
<path d="M1536 9874 c-90 -22 -174 -71 -252 -149 -82 -81 -136 -181 -154 -285
-8 -47 -10 -1282 -8 -4360 l3 -4295 27 -69 c69 -179 228 -318 406 -355 75 -16
7049 -16 7124 0 180 37 348 187 410 366 l23 68 0 4325 0 4325 -23 67 c-62 178
-216 321 -393 363 -56 13 -478 15 -3584 14 -3005 -1 -3529 -3 -3579 -15z
m7104 -4754 l0 -4260 -3520 0 -3520 0 0 4260 0 4260 3520 0 3520 0 0 -4260z"/>
<path d="M7185 9183 c-16 -2 -68 -13 -114 -24 -180 -45 -347 -139 -480 -270
-94 -94 -150 -173 -207 -293 -268 -566 18 -1238 611 -1435 125 -41 233 -55
384 -48 264 12 496 114 679 299 224 226 328 515 301 836 -45 533 -506 948
-1043 941 -55 -1 -114 -4 -131 -6z m379 -77 c287 -73 523 -269 651 -539 60
-126 85 -226 92 -369 9 -182 -20 -325 -99 -483 -122 -245 -333 -426 -594 -508
-458 -145 -959 72 -1174 508 -77 157 -95 238 -95 435 0 125 4 180 17 227 85
307 279 543 551 668 204 94 433 116 651 61z"/>
<path d="M7200 9060 c-387 -54 -698 -346 -775 -729 -21 -104 -16 -324 9 -416
74 -265 251 -477 497 -595 138 -66 219 -83 394 -83 122 0 165 4 230 22 253 68
469 241 583 466 80 159 108 291 99 473 -19 412 -304 753 -711 847 -81 19 -243
26 -326 15z m250 -51 c347 -55 625 -305 716 -644 15 -54 19 -104 19 -220 -1
-175 -13 -232 -80 -371 -141 -292 -415 -474 -740 -491 -248 -13 -470 73 -650
252 -274 273 -337 662 -164 1006 166 331 540 526 899 468z"/>
<path d="M7219 8578 c-56 -112 -103 -205 -105 -207 -2 -2 -103 -18 -224 -36
-121 -17 -222 -34 -225 -37 -3 -3 69 -77 159 -165 l165 -160 -39 -224 c-21
-123 -37 -226 -35 -228 2 -2 95 44 206 103 l202 106 196 -103 c108 -56 201
-103 207 -105 7 -2 -3 78 -28 225 l-39 228 168 161 c155 149 166 162 143 168
-14 3 -108 17 -210 31 -102 14 -195 28 -208 31 -19 4 -42 44 -122 209 -54 113
-101 205 -104 205 -3 0 -51 -91 -107 -202z"/>
<path d="M2105 9041 c-83 -15 -155 -77 -175 -150 -7 -27 -10 -313 -8 -893 l3
-853 25 -45 c14 -24 45 -58 68 -75 l44 -30 1126 -3 c1264 -3 1180 -8 1247 71
19 22 40 57 45 76 6 23 10 355 10 886 0 807 -1 852 -19 890 -21 46 -73 98
-116 117 -24 10 -245 13 -1120 14 -600 1 -1108 -1 -1130 -5z m2183 -187 l22
-15 0 -823 c0 -626 -3 -825 -12 -834 -9 -9 -266 -12 -1095 -12 -1060 0 -1083
0 -1093 19 -7 13 -10 292 -10 835 l0 815 22 15 c20 14 139 16 1083 16 944 0
1063 -2 1083 -16z"/>
<path d="M2402 8674 c-104 -52 -157 -167 -132 -288 36 -175 234 -257 392 -163
76 46 112 108 116 203 5 91 -9 135 -62 192 -56 61 -104 82 -192 82 -56 0 -81
-5 -122 -26z"/>
<path d="M3248 8153 l-338 -338 -103 103 c-56 56 -107 102 -112 102 -6 0 -106
-96 -223 -213 l-212 -212 0 -133 0 -132 945 0 945 0 0 303 0 302 -278 278
c-152 152 -279 277 -282 277 -3 0 -157 -152 -342 -337z"/>
<path d="M2115 6391 c-85 -15 -164 -85 -184 -166 -18 -71 -15 -529 4 -592 21
-70 94 -137 168 -153 38 -8 626 -10 2138 -8 l2086 3 48 30 c27 17 63 50 80 74
l30 43 0 312 0 313 -30 43 c-38 55 -87 87 -154 100 -61 11 -4119 12 -4186 1z"/>
<path d="M2091 5018 c-62 -14 -143 -95 -159 -160 -16 -61 -16 -522 -1 -583 13
-53 67 -119 120 -145 38 -20 69 -20 2853 -18 l2814 3 44 31 c26 19 54 53 71
84 l27 52 0 282 0 282 -26 52 c-14 29 -41 64 -60 78 -75 57 109 54 -2883 53
-1764 -1 -2772 -5 -2800 -11z"/>
<path d="M2079 3646 c-77 -27 -143 -105 -154 -179 -4 -23 -5 -159 -3 -302 3
-244 4 -262 25 -300 27 -51 68 -90 115 -109 33 -14 284 -16 2375 -16 2250 0
2340 1 2379 19 51 23 108 90 123 144 8 29 11 129 9 318 l-3 276 -30 49 c-19
30 -49 60 -79 79 l-49 30 -2336 2 c-1902 2 -2343 0 -2372 -11z"/>
<path d="M2079 2276 c-56 -20 -96 -53 -126 -104 l-28 -47 0 -296 0 -296 30
-48 c17 -27 50 -63 74 -80 l43 -30 3048 0 3048 0 43 30 c24 17 57 53 74 80
l30 48 0 297 0 297 -30 49 c-19 30 -49 60 -79 79 l-49 30 -3021 2 c-2452 2
-3028 0 -3057 -11z"/>
</g>
</svg>
